<?xml version="1.0" encoding="UTF-8"?>
<svg version="1.1" xmlns="http://www.w3.org/2000/svg" width="512" height="512">
<path d="M0 0 C2.18902345 -0.00406983 4.37804484 -0.00941401 6.56706238 -0.01593018 C12.48856708 -0.0295614 18.40991429 -0.0243222 24.33142161 -0.01479292 C30.54244952 -0.00717363 36.75346434 -0.01424832 42.9644928 -0.01895142 C54.06120007 -0.0247515 65.15783797 -0.01545396 76.25453413 -0.0001734 C86.29472475 0.01322486 96.33481126 0.01090237 106.375 -0.00292969 C118.06137862 -0.01896523 129.7476922 -0.0249398 141.43408018 -0.0160929 C147.61031915 -0.01142837 153.78648657 -0.01075783 159.96272087 -0.02070236 C165.77160678 -0.02940275 171.58029716 -0.02329402 177.38916206 -0.00601959 C179.51431581 -0.00207096 181.63948616 -0.00316078 183.76463318 -0.00980759 C201.02195655 -0.05878442 217.22664138 0.96876607 230.50024414 13.38427734 C239.75049042 23.24992463 243.86008116 33.970244 244.37915039 47.38818359 C245.1899707 47.34177734 246.00079102 47.29537109 246.83618164 47.24755859 C258.27199043 46.87479649 267.13610574 49.68746892 276.37915039 56.38818359 C276.9734082 56.80583984 277.56766602 57.22349609 278.17993164 57.65380859 C287.0295481 64.48233748 291.80935398 74.73377943 294.37915039 85.38818359 C294.93423709 91.01769166 294.92792811 96.60523332 294.89672852 102.25732422 C294.90216016 103.92433785 294.90928863 105.59134667 294.91796875 107.25834656 C294.93608123 111.75222158 294.92918494 116.24572602 294.91645241 120.73960686 C294.9062617 125.46252246 294.91573483 130.18540823 294.92199707 134.9083252 C294.9292559 142.83672733 294.91973225 150.76497998 294.90063477 158.69335938 C294.87886943 167.83434801 294.88592205 176.97497965 294.90794039 186.11595964 C294.92614483 193.99151409 294.92862813 201.86696164 294.91818571 209.74253035 C294.91197842 214.43431409 294.91103845 219.12593053 294.92433167 223.81770325 C294.93596331 228.2305589 294.92773226 232.64295832 294.90475464 237.05576515 C294.89950633 238.66650959 294.90091406 240.27729302 294.9098053 241.88802147 C294.97799632 255.50639735 292.72021878 266.32022746 284.37915039 277.38818359 C283.80165039 278.25443359 283.22415039 279.12068359 282.62915039 280.01318359 C274.97752441 288.08989991 263.87290481 294.14270016 252.62292862 294.51123142 C251.06985251 294.51543288 249.51675562 294.51408194 247.96368408 294.50843811 C247.10680394 294.50929254 246.2499238 294.51014696 245.36707759 294.51102728 C242.49119788 294.51267651 239.6153763 294.50716977 236.73950195 294.50170898 C234.67982484 294.50142697 232.62014763 294.50158513 230.56047058 294.50215149 C224.96376972 294.50243889 219.36709021 294.4965513 213.77039433 294.48957753 C207.9234077 294.48333458 202.0764206 294.48273945 196.22943115 294.48155212 C185.15498666 294.4784416 174.08055201 294.47023194 163.00611186 294.46020263 C150.39924697 294.44903288 137.79238162 294.44352887 125.18551302 294.4385072 C99.25005335 294.42804911 73.31460242 294.41045503 47.37915039 294.38818359 C47.23743408 295.16073486 47.09571777 295.93328613 46.94970703 296.72924805 C43.6617472 312.05195685 28.27280516 326.89125893 15.62915039 335.13818359 C8.88680568 339.36350867 1.87274203 342.69152778 -5.62084961 345.38818359 C-6.5631543 345.72849609 -7.50545898 346.06880859 -8.47631836 346.41943359 C-24.84651559 351.19131295 -44.64234048 350.00175856 -60.62084961 344.38818359 C-61.69206055 344.01435547 -62.76327148 343.64052734 -63.86694336 343.25537109 C-84.63588587 335.26528111 -101.72711478 318.566027 -110.99584961 298.39599609 C-119.68958555 277.23088894 -120.9488256 252.59796333 -112.26269531 231.21459961 C-102.4369579 208.33808805 -86.6580141 193.09124733 -64.28881836 182.76318359 C-61.42156134 181.6883439 -58.86060512 180.93769738 -55.89160156 180.30224609 C-55.08938675 180.12902832 -54.28717194 179.95581055 -53.46064758 179.77734375 C-52.85351425 179.6489209 -52.24638092 179.52049805 -51.62084961 179.38818359 C-51.62453678 178.62010974 -51.62822395 177.85203588 -51.63202286 177.06068707 C-51.72050814 158.33858293 -51.7866244 139.61652074 -51.8280983 120.89425182 C-51.84868985 111.84015055 -51.876745 102.78618918 -51.92260742 93.73217773 C-51.96257984 85.83716192 -51.98830717 77.94224747 -51.99720359 70.04713327 C-52.00240079 65.86989397 -52.01454431 61.69294459 -52.04376984 57.51579857 C-52.07110382 53.57675407 -52.07925871 49.6381164 -52.07328033 45.69898605 C-52.0743726 44.26034515 -52.082219 42.82168935 -52.09767151 41.38313103 C-52.20607066 30.7625621 -51.0023038 20.62197916 -44.21459961 12.01318359 C-31.72470271 -0.72161324 -16.62011081 -0.05192844 0 0 Z M-28.62084961 29.38818359 C-30.13288017 33.59926503 -29.93316193 36.46859732 -28.49584961 40.70068359 C-25.62843451 44.81064524 -22.42861913 46.39808163 -17.62084961 47.38818359 C-16.20942565 47.47429568 -14.79453756 47.51196944 -13.38048935 47.51123142 C-12.53651022 47.51322247 -11.69253109 47.51521352 -10.82297683 47.5172649 C-9.9008006 47.51435206 -8.97862438 47.51143922 -8.02850342 47.50843811 C-7.04503315 47.50929254 -6.06156289 47.51014696 -5.04829049 47.51102728 C-1.74400797 47.51267792 1.56022409 47.50716746 4.86450195 47.50170898 C7.2295939 47.501427 9.59468594 47.50158507 11.95977783 47.50215149 C18.38909562 47.50243901 24.81839485 47.49654951 31.24770832 47.48957753 C37.28343247 47.48349244 43.31915813 47.48295494 49.35488483 47.48192566 C61.30991697 47.47973697 73.26494228 47.47308183 85.2199707 47.46362305 C96.83325161 47.45444421 108.44653066 47.44736568 120.05981445 47.44311523 C121.13355652 47.44272115 121.13355652 47.44272115 122.22899035 47.4423191 C125.8200849 47.44101407 129.41117946 47.43975036 133.00227404 47.4385072 C162.79457085 47.42814028 192.58685999 47.4104526 222.37915039 47.38818359 C222.07515725 45.9430459 221.76647437 44.49889417 221.45581055 43.05517578 C221.28441559 42.25086121 221.11302063 41.44654663 220.93643188 40.61785889 C219.40204456 34.47879713 215.44639265 29.75586372 210.19165039 26.38818359 C204.98800498 23.43226668 200.40794266 23.23560905 194.52362061 23.22755432 C193.14898521 23.21992259 193.14898521 23.21992259 191.74657941 23.21213669 C188.66284158 23.19638776 185.57912723 23.18788073 182.49536133 23.17944336 C180.28955434 23.16990697 178.08374887 23.16001591 175.87794495 23.14979553 C168.62315653 23.11838926 161.36835657 23.09814318 154.11352539 23.07958984 C152.87995835 23.07629252 151.64639132 23.0729952 150.37544346 23.06959796 C138.74576326 23.03881938 127.11607953 23.01194567 115.48637009 22.99517918 C112.79324077 22.99122975 110.10011155 22.98722674 107.40698242 22.9831543 C106.73762678 22.98214594 106.06827113 22.98113757 105.37863198 22.98009866 C94.53584031 22.96309223 83.69327688 22.9219823 72.85059664 22.87113131 C61.7164709 22.81934331 50.58242679 22.79071788 39.44817376 22.78298229 C33.19749122 22.77802129 26.94721447 22.76289674 20.69664764 22.72323799 C14.81636645 22.6864202 8.93672365 22.67794641 3.0563488 22.69124413 C0.8984338 22.6911901 -1.25950916 22.68086225 -3.41731834 22.65949249 C-6.36478003 22.63186336 -9.30990496 22.64129648 -12.25738525 22.65992737 C-13.11041237 22.64313244 -13.96343949 22.62633751 -14.84231591 22.60903364 C-20.91822008 22.70494544 -24.82043709 24.5287159 -28.62084961 29.38818359 Z M-29.62084961 67.38818359 C-29.62084961 86.85818359 -29.62084961 106.32818359 -29.62084961 126.38818359 C-19.29489071 123.93761646 -19.29489071 123.93761646 -9.99584961 119.76318359 C-9.04911377 119.24377197 -9.04911377 119.24377197 -8.08325195 118.71386719 C-2.19024038 115.356518 2.65075249 111.24679555 7.37915039 106.38818359 C8.1590332 105.62892578 8.93891602 104.86966797 9.74243164 104.08740234 C18.21090979 95.39120041 26.37915039 81.92201722 26.37915039 69.38818359 C25.78081894 69.37787613 25.18248749 69.36756866 24.56602478 69.35694885 C18.32011854 69.24849279 12.07434523 69.13392844 5.82861328 69.01586914 C3.49986562 68.97264525 1.17108883 68.93096168 -1.15771484 68.89086914 C-4.51140102 68.83286176 -7.86494226 68.76925592 -11.21850586 68.70458984 C-12.25419205 68.68787735 -13.28987823 68.67116486 -14.35694885 68.65394592 C-15.82768105 68.62402809 -15.82768105 68.62402809 -17.328125 68.59350586 C-18.18306046 68.57796158 -19.03799591 68.5624173 -19.9188385 68.54640198 C-23.17023582 68.35601385 -26.39661706 67.84878824 -29.62084961 67.38818359 Z M49.37915039 69.38818359 C48.90300293 71.2899939 48.90300293 71.2899939 48.41723633 73.23022461 C47.98302465 74.93010467 47.54843399 76.62988796 47.11352539 78.32958984 C46.90646973 79.16091431 46.69941406 79.99223877 46.48608398 80.84875488 C42.76866337 95.27304828 35.89713803 109.11986111 25.11352539 119.58740234 C23.14791648 121.2115754 23.14791648 121.2115754 23.37915039 123.38818359 C22.78618164 123.65501953 22.19321289 123.92185547 21.58227539 124.19677734 C19.34096414 125.40883396 17.93336853 126.66754277 16.12915039 128.45068359 C3.1761258 139.96181305 -12.95496849 145.05500737 -29.62084961 148.38818359 C-29.62084961 157.95818359 -29.62084961 167.52818359 -29.62084961 177.38818359 C-26.73334961 177.80068359 -23.84584961 178.21318359 -20.87084961 178.63818359 C-4.28813806 181.18687457 9.62204286 187.0317599 22.78540039 197.43505859 C24.95023646 199.06520624 26.91434141 200.2952966 29.37915039 201.38818359 C29.86125977 200.82228516 30.34336914 200.25638672 30.84008789 199.67333984 C31.47172852 198.93986328 32.10336914 198.20638672 32.75415039 197.45068359 C33.38063477 196.71978516 34.00711914 195.98888672 34.65258789 195.23583984 C37.27764116 192.4266765 38.21489619 192.39895436 42.19165039 192.13818359 C46.01020869 192.17984059 48.32285762 192.98019535 51.37915039 195.38818359 C53.32561656 199.28111592 53.2973914 203.18480707 52.37915039 207.38818359 C49.75517522 211.42546816 46.62860023 214.85003027 43.37915039 218.38818359 C43.04915039 219.04818359 42.71915039 219.70818359 42.37915039 220.38818359 C43.39895443 222.8747058 44.479656 225.27518871 45.62915039 227.70068359 C50.71362933 239.00831368 52.49515724 248.98905259 52.94946289 261.32177734 C52.99208252 262.38746948 53.03470215 263.45316162 53.07861328 264.55114746 C53.18254591 267.16336965 53.28262041 269.77567914 53.37915039 272.38818359 C79.1527639 272.50505946 104.92633761 272.59319277 130.70016289 272.64724445 C142.66779319 272.67301028 154.63525869 272.70813004 166.6027832 272.76538086 C177.03542573 272.81526518 187.46794888 272.84748639 197.90070736 272.85862607 C203.42324232 272.86513624 208.94543581 272.88040363 214.46786118 272.91683388 C219.67009624 272.95087256 224.87185047 272.96122055 230.07418633 272.953722 C231.97928038 272.95509302 233.88439119 272.96497834 235.78938866 272.98421097 C247.42037882 273.09583659 255.92859018 272.71690725 265.25415039 265.01318359 C270.55501336 258.46505875 272.5136359 253.05087952 272.47680664 244.65380859 C272.47197266 242.71054687 272.47197266 242.71054687 272.46704102 240.72802734 C272.45868637 239.36474542 272.45022143 238.00146417 272.44165039 236.63818359 C272.43663207 235.25927894 272.43206974 233.88037256 272.42797852 232.50146484 C272.41619132 229.13032701 272.39973674 225.75927732 272.37915039 222.38818359 C271.76514374 222.38671703 271.15113708 222.38525047 270.51852417 222.38373947 C255.50808994 222.34652341 240.49791241 222.28731508 225.4876709 222.20428085 C218.22851236 222.16464272 210.96945984 222.1321736 203.71020508 222.1171875 C197.3755433 222.10409129 191.04111629 222.07692669 184.70658684 222.03357053 C181.3591613 222.01113206 178.01227431 221.99736271 174.66473389 221.99629974 C153.32459241 221.98271806 133.59780299 221.39995533 116.96118164 206.09912109 C105.13377498 193.30799982 100.70652007 178.65979199 101.13696289 161.60302734 C101.75543802 147.93227754 107.73254773 135.26470961 117.16430664 125.38037109 C129.90333599 113.92198491 144.70654081 110.26774615 161.35131836 110.18286133 C162.5518837 110.17296173 163.75244904 110.16306213 164.98939514 110.15286255 C168.26784852 110.12675615 171.54629711 110.10486076 174.82479239 110.08486056 C178.25611525 110.0629247 181.68739491 110.03557335 185.11868286 110.00880432 C191.61020616 109.95897985 198.10175357 109.91400321 204.59332383 109.87078196 C211.9863375 109.82132176 219.37930782 109.76643633 226.7722795 109.71110237 C241.97452934 109.5974397 257.17682008 109.49056672 272.37915039 109.38818359 C272.4970786 106.24267547 272.56696422 103.09774818 272.62915039 99.95068359 C272.67942383 98.63293945 272.67942383 98.63293945 272.73071289 97.28857422 C272.84488448 89.55344874 270.77010419 83.9746143 266.50415039 77.57568359 C261.35376803 72.2738194 255.83001816 69.6054585 248.47053719 69.14208794 C246.96403282 69.13374522 245.45744286 69.13631197 243.95095825 69.14767456 C243.11687057 69.14596571 242.2827829 69.14425686 241.42341983 69.14249623 C238.6366025 69.13920954 235.85002747 69.15019149 233.06323242 69.16113281 C231.0623729 69.1616971 229.06151297 69.16138002 227.06065369 69.1602478 C221.63345981 69.15967399 216.20635434 69.17143301 210.779181 69.18539572 C205.10571141 69.19789825 199.43223979 69.1990732 193.75875854 69.20144653 C183.01727593 69.20766269 172.27583403 69.22407539 161.53436935 69.24414551 C149.30472251 69.26650024 137.07507372 69.27749688 124.84541154 69.28753638 C99.68996859 69.30844147 74.53456177 69.34362013 49.37915039 69.38818359 Z M129.60180664 144.48974609 C124.13156793 152.05980749 121.04480394 161.01743235 122.37915039 170.38818359 C124.71466757 180.75899204 129.49197773 189.51115883 138.56274414 195.39599609 C147.65411548 200.36203549 156.77389886 200.53581669 166.9140625 200.50170898 C168.05625244 200.50185501 169.19844238 200.50200104 170.37524414 200.50215149 C174.13568039 200.50145703 177.89606658 200.49368645 181.65649414 200.48583984 C184.26965813 200.48397401 186.88282247 200.48255089 189.49598694 200.48155212 C195.66168229 200.47845118 201.82735979 200.47025455 207.9930473 200.46020263 C215.70572927 200.44790314 223.41841418 200.44244915 231.13110352 200.43701172 C244.88046636 200.42728836 258.62979028 200.40725344 272.37915039 200.38818359 C272.37915039 177.61818359 272.37915039 154.84818359 272.37915039 131.38818359 C250.52190492 131.26789662 250.52190492 131.26789662 228.66461277 131.18716812 C220.84369173 131.16505714 213.02294252 131.13704669 205.20214844 131.08642578 C199.00717179 131.04634753 192.8123252 131.02070134 186.61722249 131.01182961 C183.34194914 131.00664996 180.06713075 130.9924684 176.79195595 130.96526337 C173.12068757 130.93599605 169.45017586 130.93223744 165.77880859 130.93408203 C164.7128093 130.91970093 163.64681 130.90531982 162.54850769 130.89050293 C149.68147268 130.95992458 138.07880402 134.46639534 129.60180664 144.48974609 Z M-81.93334961 223.20068359 C-91.77091474 236.29731939 -97.48887235 252.92262236 -95.62084961 269.38818359 C-92.41148713 288.20758135 -84.13782651 303.87913784 -68.62084961 315.32568359 C-52.85116403 325.54861857 -35.33884688 328.93944586 -16.93334961 325.32568359 C0.80989789 320.52482984 14.6632706 309.351593 24.02758789 293.61865234 C32.90443345 277.09905926 33.47236258 259.87980584 28.44946289 242.16943359 C27.68954651 239.262494 27.68954651 239.262494 25.37915039 238.38818359 C24.61344727 239.35304688 24.61344727 239.35304688 23.83227539 240.33740234 C19.51544546 245.70282394 15.08549683 250.8646312 10.37915039 255.88818359 C6.73022759 259.78391834 3.22216536 263.72152725 -0.12084961 267.88818359 C-4.44867087 273.27828826 -9.09855036 278.31147406 -13.81225586 283.36083984 C-16.68832816 286.44502994 -19.47233627 289.60187543 -22.21850586 292.80224609 C-22.6812793 293.32560547 -23.14405273 293.84896484 -23.62084961 294.38818359 C-24.07975586 294.93990234 -24.53866211 295.49162109 -25.01147461 296.06005859 C-27.15213693 297.82662459 -28.55184027 297.91798233 -31.30834961 298.01318359 C-32.1165918 298.06732422 -32.92483398 298.12146484 -33.75756836 298.17724609 C-42.7468814 295.69997292 -50.66378172 284.49718715 -57.13232422 278.00708008 C-59.07462226 276.05936557 -61.02228101 274.11712429 -62.97045898 272.17529297 C-64.20710836 270.93798376 -65.44344803 269.70036491 -66.67944336 268.46240234 C-67.26165146 267.88221848 -67.84385956 267.30203461 -68.44371033 266.70426941 C-72.31342584 262.81174049 -73.77945119 260.97252756 -73.93334961 255.51318359 C-73.87697572 252.25759146 -73.79519974 250.69898166 -72.18334961 247.82568359 C-68.49996266 245.75939336 -64.83936612 244.84209731 -60.62084961 245.38818359 C-56.36786601 247.9576027 -52.92562877 250.84507383 -49.44116211 254.37255859 C-48.51303711 255.30712891 -47.58491211 256.24169922 -46.62866211 257.20458984 C-45.66761278 258.18234453 -44.70667665 259.16021048 -43.74584961 260.13818359 C-42.76194281 261.13213687 -41.77757177 262.12563082 -40.79272461 263.11865234 C-38.39750167 265.53735786 -36.00708685 267.96061797 -33.62084961 270.38818359 C-29.85589084 268.64294 -27.70923437 266.56629016 -24.93334961 263.45068359 C-24.49619629 262.96196777 -24.05904297 262.47325195 -23.60864258 261.96972656 C-20.72862062 258.72332667 -17.96982071 255.39209856 -15.24584961 252.01318359 C-11.85697804 247.81002487 -8.30834705 243.82627076 -4.62084961 239.88818359 C1.78629312 233.04176366 7.79100784 225.92608304 13.37915039 218.38818359 C1.34143089 205.81545434 -14.74648455 199.65084232 -31.99584961 198.95068359 C-51.54840644 199.49844097 -69.30960835 208.27736138 -81.93334961 223.20068359 Z " fill="#000000" transform="translate(170.620849609375,85.61181640625)"/>
<path d="M0 0 C6.79971369 6.95425264 9.12438968 14.32414575 9.03515625 23.859375 C8.39557086 30.48302641 5.60747023 37.21068609 0.75 41.8125 C-8.02339866 47.79836397 -14.58554263 49.76612276 -25.25 48.8125 C-33.41851549 46.61328429 -39.89611781 41.62346908 -44.1875 34.375 C-47.54525673 26.97901093 -47.64691107 18.63120239 -45.3984375 10.875 C-42.16964694 3.67062378 -36.76997039 -1.84058311 -29.5625 -5.125 C-18.66456859 -8.55741934 -9.14689107 -6.1565613 0 0 Z M-23.1875 16.875 C-24.51064886 18.89243392 -24.51064886 18.89243392 -24.125 21.875 C-23.50349587 25.10505415 -23.50349587 25.10505415 -20.25 26.8125 C-18.18400917 26.88004834 -18.18400917 26.88004834 -16.25 25.8125 C-14.26077927 23.58052871 -14.26077927 23.58052871 -13.25 20.8125 C-13.50769775 18.46364735 -13.50769775 18.46364735 -15.25 16.8125 C-18.3936092 15.80922047 -20.22761361 15.25183649 -23.1875 16.875 Z " fill="#000000" transform="translate(346.25,230.1875)"/>
</svg>
