<?xml version="1.0" encoding="UTF-8"?>
<svg version="1.1" xmlns="http://www.w3.org/2000/svg" width="512" height="512">
<path d="M0 0 C1.13374601 -0.0055344 2.26749202 -0.01106879 3.43559396 -0.0167709 C7.22497734 -0.03035662 11.01369974 -0.01541864 14.80307007 -0.00050354 C17.52355558 -0.00208007 20.24401726 -0.00963569 22.9644928 -0.01687622 C29.58025644 -0.03078792 36.19582882 -0.02326834 42.8115833 -0.00820064 C50.51826853 0.00868207 58.22490642 0.00544644 65.93160443 0.00170528 C79.68225528 -0.0041693 93.43281446 0.00998353 107.18344116 0.03465271 C120.52299432 0.05858167 133.86242508 0.06565283 147.20199585 0.05516052 C161.73503317 0.04374994 176.26801391 0.04182225 190.80105054 0.05625862 C192.3507591 0.05778444 193.90046767 0.05930479 195.45017624 0.06081963 C196.21263061 0.06157744 196.97508498 0.06233525 197.76064403 0.06311603 C203.13151075 0.06785705 208.5023522 0.06600879 213.87321854 0.06175423 C220.41768538 0.05682651 226.96203653 0.06281685 233.50647689 0.08264852 C236.84501234 0.09251635 240.18322458 0.09602143 243.52179146 0.08975601 C247.14093768 0.083815 250.75956287 0.09628645 254.37866211 0.11352539 C255.96095012 0.10451032 255.96095012 0.10451032 257.57520354 0.09531313 C263.74650532 0.14890374 268.48391325 0.62751275 273.20687866 5.03636169 C276.35329433 9.15090526 277.6909513 11.15296038 277.66000366 16.29026794 C277.65678101 17.23128357 277.65355835 18.17229919 277.65023804 19.14183044 C277.64185913 20.12667419 277.63348022 21.11151794 277.62484741 22.12620544 C277.62033569 23.11878357 277.61582397 24.11136169 277.61117554 25.13401794 C277.59936886 27.58980704 277.58290141 30.04547648 277.56234741 32.50120544 C278.86994019 32.49121269 278.86994019 32.49121269 280.20394897 32.48101807 C288.44246794 32.42076223 296.68091227 32.37515766 304.91960144 32.34576893 C309.15461676 32.33015165 313.3894491 32.30898591 317.62435913 32.27488708 C321.71572657 32.24215238 325.80691863 32.22432285 329.89840698 32.21657372 C331.45483152 32.21105542 333.0112471 32.20027976 334.56759644 32.18401527 C350.67207454 32.02249874 350.67207454 32.02249874 356.56234741 35.50120544 C360.97619478 40.3999701 364.09727118 46.00821017 366.97201538 51.8981781 C367.36969116 52.69615814 367.76736694 53.49413818 368.17709351 54.31629944 C369.47700936 56.92900501 370.76564275 59.54710932 372.05453491 62.16526794 C372.96762002 64.0040058 373.88154493 65.84232684 374.79626465 67.68025208 C377.19689807 72.50802719 379.5885803 77.34017509 381.97763062 82.1736908 C385.79122073 89.8872971 389.61548561 97.59558998 393.44531631 105.30114365 C394.76960137 107.96986917 396.08825689 110.6413185 397.40631104 113.31312561 C406.69053299 132.42051536 406.69053299 132.42051536 418.99984741 149.62620544 C420.12785478 150.97373813 421.25414664 152.32270864 422.37875366 153.67308044 C422.92032104 154.31954529 423.46188843 154.96601013 424.01986694 155.63206482 C442.66970835 178.23149277 442.66970835 178.23149277 442.70951843 186.09841919 C442.72025139 187.55143181 442.72025139 187.55143181 442.73120117 189.03379822 C442.73389008 190.10029602 442.73657898 191.16679382 442.73934937 192.26560974 C442.74592056 193.38607193 442.75249176 194.50653412 442.75926208 195.66094971 C442.77903105 199.38244183 442.79066633 203.10389351 442.80062866 206.82542419 C442.80470419 208.09463022 442.80877972 209.36383625 442.81297874 210.67150307 C442.83170128 216.69697923 442.84626259 222.72243082 442.85459071 228.74792832 C442.86435379 235.69659451 442.89064688 242.64494136 442.93109161 249.59349507 C442.96494061 255.61629045 442.97673998 261.63893136 442.98079491 267.66182899 C442.98566855 270.22107418 442.99730452 272.78031577 443.0158329 275.33949852 C443.04016376 278.92320043 443.03926967 282.50606937 443.03231812 286.08982849 C443.0515332 287.67439346 443.0515332 287.67439346 443.07113647 289.29096985 C443.02674501 295.57379518 442.35264249 299.41612598 438.56234741 304.50120544 C433.0064073 309.48866466 425.65132702 309.02686385 418.62484741 308.89183044 C417.5041687 308.88617065 416.38348999 308.88051086 415.22885132 308.87467957 C411.67290325 308.85240836 408.11798752 308.80222722 404.56234741 308.75120544 C402.14178912 308.73112857 399.72121492 308.71287989 397.30062866 308.69651794 C391.38751999 308.65257391 385.47500748 308.58575418 379.56234741 308.50120544 C379.43433243 309.11432083 379.30631744 309.72743622 379.17442322 310.35913086 C378.9150724 311.56943214 378.9150724 311.56943214 378.65048218 312.80418396 C378.48121719 313.60292435 378.31195221 314.40166473 378.13755798 315.22460938 C374.81409041 328.37838922 362.49785574 340.20563676 351.56234741 347.50120544 C335.17025906 356.71000922 317.39403097 359.16763861 299.29501343 354.33787537 C280.2898311 348.76718835 267.94288347 336.80154284 258.26156616 320.06370544 C256.56234741 316.50120544 256.56234741 316.50120544 254.56234741 308.50120544 C223.21234741 308.50120544 191.86234741 308.50120544 159.56234741 308.50120544 C158.57234741 311.80120544 157.58234741 315.10120544 156.56234741 318.50120544 C150.83279374 330.85091698 142.16208229 340.46559642 130.56234741 347.50120544 C129.42732788 348.19343201 129.42732788 348.19343201 128.26937866 348.89964294 C112.99872137 357.34070979 95.07903083 358.8335104 78.36459351 354.40623474 C66.92897326 351.02579652 57.89821549 344.92575297 49.56234741 336.50120544 C48.93844116 335.91081482 48.31453491 335.32042419 47.67172241 334.71214294 C43.48028199 330.42630071 40.815075 325.55386376 38.12484741 320.25120544 C37.77019409 319.55309753 37.41554077 318.85498962 37.05014038 318.13572693 C35.34146187 314.61873233 34.56234741 312.47708442 34.56234741 308.50120544 C33.99129272 308.5123085 33.42023804 308.52341156 32.83187866 308.53485107 C26.86182372 308.64589238 20.89206444 308.72105723 14.92123413 308.77586365 C12.69617792 308.80093151 10.47120343 308.83499488 8.24642944 308.87840271 C5.03902976 308.93939353 1.83272334 308.96749328 -1.37515259 308.98948669 C-2.8553186 309.02819633 -2.8553186 309.02819633 -4.36538696 309.06768799 C-10.86267838 309.07029731 -15.53275076 307.94708865 -20.43765259 303.50120544 C-23.83949217 298.73863739 -25.28108098 294.40520422 -24.43765259 288.50120544 C-22.58045405 283.22755611 -20.22930012 279.57277437 -15.43765259 276.50120544 C-12.62396165 275.56330846 -10.79454759 275.35188562 -7.87442017 275.29588318 C-6.95369217 275.27593796 -6.03296417 275.25599274 -5.08433533 275.23544312 C-3.59827034 275.21037437 -3.59827034 275.21037437 -2.08218384 275.18479919 C-1.06541061 275.1640181 -0.04863739 275.143237 0.99894714 275.12182617 C4.24917804 275.05640497 7.49949018 274.99748008 10.74984741 274.93870544 C12.9523298 274.89551317 15.15480394 274.85189865 17.35726929 274.80784607 C22.75887594 274.70073117 28.16056353 274.59895087 33.56234741 274.50120544 C33.81629272 273.77602722 34.07023804 273.050849 34.33187866 272.30369568 C40.33035766 255.44420661 50.11580481 241.4486963 66.56234741 233.50120544 C82.95300794 225.72000091 101.14031843 223.48035719 118.56234741 229.50120544 C136.54018417 236.95254568 149.35995779 248.83306965 157.56234741 266.50120544 C158.22234741 269.47120544 158.88234741 272.44120544 159.56234741 275.50120544 C190.91234741 275.50120544 222.26234741 275.50120544 254.56234741 275.50120544 C255.22234741 272.53120544 255.88234741 269.56120544 256.56234741 266.50120544 C263.18545134 250.18481239 275.67192042 238.35228172 291.56234741 231.18870544 C307.75730665 224.66549415 325.14337303 224.48463407 341.56234741 230.50120544 C350.58645921 234.34591533 357.69535128 239.54913149 364.56234741 246.50120544 C365.19785522 247.11479919 365.83336304 247.72839294 366.48812866 248.36058044 C373.45942118 255.59464895 377.42584475 265.09169745 380.56234741 274.50120544 C390.13234741 274.83120544 399.70234741 275.16120544 409.56234741 275.50120544 C409.70357849 264.95501945 409.7924864 254.4117819 409.79294205 243.86463165 C409.7951688 238.96538672 409.81903373 234.06836483 409.89486694 229.16966248 C409.96741552 224.42900824 409.97983771 219.69144389 409.95305634 214.9503479 C409.95300115 213.15482414 409.9734993 211.35916141 410.01630402 209.56414795 C410.3226233 195.87206642 407.16517771 188.5142321 398.06201172 178.36358452 C396.58219449 176.52585281 395.59540961 174.79013053 394.57870483 172.6685791 C392.55695865 168.6963566 390.57224157 165.64927873 386.56234741 163.50120544 C377.71866973 161.28545444 368.34542892 161.90464648 359.29328632 162.11288142 C355.66739973 162.1813763 352.04172695 162.17229971 348.41531372 162.17077637 C341.55464002 162.17879126 334.69623464 162.24934607 327.83628821 162.34574276 C315.54599307 162.51618277 303.25481123 162.57520499 290.96349216 162.61787802 C286.65434399 162.63526431 282.34645784 162.67859189 278.03778028 162.7441262 C276.00387136 162.7727701 273.97009315 162.79260772 271.93605042 162.80885315 C269.46092457 162.82952436 266.9858591 162.86490183 264.51121521 162.91793823 C258.19861853 162.9460111 254.32294627 162.81533273 249.56234741 158.50120544 C245.76437576 154.29264226 244.43606159 151.32587644 244.4420929 145.69866943 C244.4400309 144.21579941 244.4400309 144.21579941 244.43792725 142.70297241 C244.44152252 141.61972183 244.4451178 140.53647125 244.44882202 139.4203949 C244.44867599 138.27878906 244.44852997 137.13718323 244.44837952 135.96098328 C244.44907748 132.17879858 244.4568645 128.39666282 244.46469116 124.61448669 C244.46655575 121.99560574 244.46797946 119.37672444 244.46897888 116.75784302 C244.47208788 110.56368178 244.48029548 104.36953817 244.49032837 98.1753847 C244.50150287 91.12345659 244.50700333 84.07152764 244.51202381 77.01959288 C244.52247844 62.51345464 244.54006956 48.00733029 244.56234741 33.50120544 C242.58387975 33.50535351 242.58387975 33.50535351 240.56544304 33.50958538 C209.25960528 33.57455085 177.95378533 33.62402294 146.64789592 33.65440143 C142.79516089 33.65815358 138.94242599 33.66203654 135.08969116 33.66600037 C134.32267703 33.6667873 133.55566289 33.66757423 132.76540591 33.66838501 C120.34400661 33.68144096 107.92264893 33.70509585 95.50127433 33.73266383 C82.7569681 33.76071275 70.01268369 33.77738061 57.26834786 33.78347093 C49.40361992 33.78758844 41.53900964 33.80059596 33.67431791 33.82495485 C27.64490934 33.84267879 21.61560211 33.84457236 15.58616447 33.84052849 C13.11178932 33.84135515 10.63740979 33.84734016 8.16306114 33.85882187 C4.78873857 33.87371427 1.4149223 33.87017054 -1.95941162 33.86196899 C-2.94190828 33.87070752 -3.92440495 33.87944604 -4.93667424 33.88844937 C-10.19623455 33.85381881 -13.90033013 33.46901431 -18.43765259 30.50120544 C-21.95444192 26.78903893 -24.39386051 23.40121435 -24.47280884 18.17308044 C-24.13234125 12.62595001 -23.33378119 8.69703625 -19.43765259 4.50120544 C-13.2673453 0.1680826 -7.33886605 -0.06710781 0 0 Z M277.56234741 66.50120544 C277.56234741 87.29120544 277.56234741 108.08120544 277.56234741 129.50120544 C307.26234741 129.50120544 336.96234741 129.50120544 367.56234741 129.50120544 C360.33526578 114.19941121 360.33526578 114.19941121 352.87094116 99.02073669 C352.23581604 97.75199707 352.23581604 97.75199707 351.58786011 96.45762634 C350.06076714 93.40852751 348.53012826 90.3612056 346.99984741 87.31370544 C341.83328491 77.01151794 341.83328491 77.01151794 336.56234741 66.50120544 C317.09234741 66.50120544 297.62234741 66.50120544 277.56234741 66.50120544 Z M74.56234741 268.50120544 C68.3008724 275.22750611 64.345954 283.19628887 64.56234741 292.50120544 C65.9312974 302.45599708 69.52869613 310.57343467 77.49984741 316.87620544 C85.0508992 322.02919164 92.48721929 324.30860957 101.58969116 323.09886169 C111.60765029 320.9638868 118.71522976 315.88816482 124.56234741 307.50120544 C128.95607826 299.48607925 129.73020292 291.11465061 127.31234741 282.37620544 C124.41796677 273.66650956 118.56248667 266.9637364 110.58578491 262.36058044 C97.81597085 257.00041158 84.94797524 259.66745304 74.56234741 268.50120544 Z M294.87484741 268.81370544 C288.20126991 276.5694847 284.97339578 283.94561652 285.19125366 294.27464294 C286.19044823 302.96237677 290.00286904 310.05496279 296.46078491 315.88401794 C303.49888182 321.29995125 311.60927462 323.91175627 320.49984741 323.43870544 C328.58868026 322.36941961 335.84481335 318.2187395 341.56234741 312.50120544 C348.11443237 303.70425573 349.50987648 295.36780467 348.56234741 284.50120544 C346.63708317 276.08537971 342.03598867 269.43463593 334.82797241 264.70823669 C320.4709399 256.8788187 307.14813567 258.25296903 294.87484741 268.81370544 Z " fill="#000000" transform="translate(69.43765258789063,77.49879455566406)"/>
<path d="M0 0 C1.21550537 -0.00571014 2.43101074 -0.01142029 3.68334961 -0.01730347 C5.03248586 -0.01854881 6.38162223 -0.01967391 7.73075867 -0.02069092 C9.15002064 -0.02531969 10.56928137 -0.03034444 11.98854065 -0.03573608 C15.84608038 -0.04885663 19.70360272 -0.0553044 23.56116128 -0.05974674 C25.97152392 -0.06267811 28.3818818 -0.06678305 30.79224205 -0.07125092 C38.33462353 -0.08492512 45.87699414 -0.09459207 53.41938716 -0.09845281 C62.12423347 -0.1029331 70.82892272 -0.12047994 79.53372127 -0.1494534 C86.26333478 -0.17107456 92.99290412 -0.18115732 99.722552 -0.18249393 C103.74134845 -0.18354167 107.75999724 -0.18944292 111.7787571 -0.20731354 C115.56020826 -0.22380172 119.3414009 -0.22594621 123.12287521 -0.21717453 C124.5087764 -0.21640454 125.89469153 -0.22074189 127.28055763 -0.23063278 C129.17657936 -0.24336824 131.07270513 -0.23567796 132.96875 -0.22705078 C134.02860265 -0.22851734 135.0884553 -0.2299839 136.18042469 -0.2314949 C142.13781743 0.5084712 146.30437056 3.48570638 149.97172546 8.05059814 C152.19472101 11.91197028 152.47153214 15.75379137 152.17485046 20.14044189 C150.52880234 26.04684988 147.97888001 28.66518648 143.17485046 32.14044189 C140.469692 33.49302113 138.35482558 33.27570987 135.3248291 33.28761292 C133.45531586 33.29834587 133.45531586 33.29834587 131.54803467 33.30929565 C130.15907312 33.31213607 128.77011131 33.31484779 127.38114929 33.31744385 C125.92424863 33.32370762 124.46734957 33.33035434 123.01045227 33.33735657 C119.04535668 33.35477688 115.08027317 33.36532163 111.11514878 33.3735621 C108.6376126 33.37871123 106.16008016 33.38478708 103.68254662 33.39107323 C95.93032572 33.41013021 88.17811436 33.42435894 80.42587453 33.4326852 C71.47874267 33.44245338 62.53185849 33.46875968 53.58481389 33.50918609 C46.66922033 33.53936031 39.75369769 33.5541554 32.83803958 33.55746621 C28.7079223 33.55981567 24.57806947 33.56876197 20.44802284 33.59392738 C16.55983068 33.61723546 12.67207651 33.62143057 8.78383255 33.611166 C7.35964309 33.61067115 5.93543188 33.61697671 4.51130867 33.63072205 C-8.86296232 33.75254451 -8.86296232 33.75254451 -14.82514954 29.14044189 C-18.43388448 24.91668446 -19.4900097 19.76523839 -19.20796204 14.31231689 C-18.30161628 9.17019201 -15.90706356 5.97947726 -11.76264954 2.76544189 C-7.5986363 0.46194521 -4.69105605 0.01318034 0 0 Z " fill="#000000" transform="translate(44.82514953613281,143.85955810546875)"/>
<path d="M0 0 C1.44779157 -0.00542597 2.89557761 -0.01255129 4.34335327 -0.02124023 C8.26077786 -0.03942042 12.17777939 -0.03242827 16.09521103 -0.01972389 C20.20256405 -0.00956857 24.30988182 -0.01899659 28.41723633 -0.02526855 C35.3137052 -0.03253761 42.21000251 -0.02297681 49.10644531 -0.00390625 C57.06990592 0.01786116 65.03295683 0.01080926 72.99640751 -0.01121187 C79.84419533 -0.02938709 86.69186011 -0.03191386 93.53966427 -0.0214572 C97.62495065 -0.01523389 101.71004472 -0.01435446 105.7953186 -0.02760315 C109.63685832 -0.03919207 113.47787189 -0.0310811 117.31935501 -0.00802612 C118.72578688 -0.00275516 120.13226333 -0.00422516 121.53867722 -0.01307678 C134.84058764 -0.08905171 134.84058764 -0.08905171 140.73046875 4.51757812 C144.70178039 9.5071748 145.36892334 13.59484186 145.1171875 19.93164062 C144.37057202 24.92416029 141.79554965 27.55640756 138.16796875 30.83007812 C134.33470377 33.48387696 131.41707039 33.64532523 126.86735535 33.65802002 C125.64343582 33.66373016 124.4195163 33.66944031 123.1585083 33.67532349 C121.79992686 33.67656883 120.4413453 33.67769393 119.08276367 33.67871094 C117.65364962 33.68333968 116.2245368 33.68836442 114.79542542 33.6937561 C110.91102703 33.70687693 107.02664593 33.71332447 103.14222884 33.71776676 C100.71511525 33.72069808 98.28800637 33.72480301 95.86089516 33.72927094 C88.26618795 33.74294521 80.67149153 33.75261213 73.07677287 33.75647283 C64.31136649 33.76095316 55.54611608 33.77850014 46.78075713 33.80747342 C40.00443489 33.82909413 33.22815653 33.83917732 26.45180017 33.84051394 C22.40505847 33.84156172 18.35846341 33.84746362 14.31175804 33.86533356 C10.50404259 33.88182098 6.69658389 33.8839666 2.88884544 33.87519455 C1.49326896 33.87442452 0.09767864 33.87876244 -1.29786301 33.8886528 C-3.20702222 33.90138698 -5.11628474 33.89369844 -7.02546692 33.8850708 C-8.09269391 33.88653736 -9.1599209 33.88800392 -10.25948811 33.88951492 C-14.44439032 33.37240635 -17.8201002 31.87060996 -20.9140625 28.98242188 C-25.49712004 22.98919278 -25.99409467 19.01163408 -25.26953125 11.51757812 C-23.83686542 6.78805478 -20.96618409 3.68834901 -16.61758423 1.33485413 C-11.31015141 -0.51247961 -5.5560763 -0.03496858 0 0 Z " fill="#000000" transform="translate(25.26953125,207.482421875)"/>
<path d="M0 0 C0.78898682 -0.0065712 1.57797363 -0.0131424 2.39086914 -0.01991272 C5.00309344 -0.03962977 7.61526025 -0.05130528 10.22753906 -0.0612793 C11.1207209 -0.06535482 12.01390274 -0.06943035 12.9341507 -0.07362938 C17.66247832 -0.09448418 22.39077697 -0.10878797 27.11914062 -0.11816406 C31.9960545 -0.12922213 36.87251132 -0.16361669 41.74926376 -0.20333576 C45.50515576 -0.22951723 49.26093915 -0.2378573 53.01691437 -0.24144554 C54.81420221 -0.24630821 56.6114853 -0.2579131 58.40868378 -0.27648354 C60.92907115 -0.30090609 63.44827983 -0.29990451 65.96875 -0.29296875 C67.07407074 -0.31218384 67.07407074 -0.31218384 68.20172119 -0.33178711 C73.74567396 -0.27641664 76.77378178 1.13566933 81.24316406 4.17700195 C85.81319811 9.10782816 86.61192805 13.06729213 86.51660156 19.60668945 C86.06946263 23.80979539 84.86214098 25.81933924 82.24316406 29.17700195 C76.9200713 32.86614584 73.13771527 33.76271037 66.7409668 33.69458008 C65.92052887 33.70158936 65.10009094 33.70859863 64.25479126 33.71582031 C61.56176202 33.7333252 58.86979642 33.72180578 56.17675781 33.70825195 C54.2954132 33.71094877 52.41406996 33.71483278 50.5327301 33.71984863 C46.59793777 33.72573328 42.66350964 33.71721314 38.72875977 33.69848633 C33.69259165 33.67568165 28.65727556 33.68883598 23.62113857 33.71277618 C19.73913686 33.72724872 15.8573363 33.72262177 11.97532845 33.71226501 C10.1186316 33.70960257 8.26191631 33.71285048 6.40524101 33.72218323 C3.80832586 33.73237469 1.21278027 33.71681302 -1.3840332 33.69458008 C-2.14627701 33.702677 -2.90852081 33.71077393 -3.69386292 33.71911621 C-8.86065428 33.63741858 -11.76645802 32.41622668 -15.75683594 29.17700195 C-20.0381716 24.43281919 -21.12569293 20.77806294 -21.03417969 14.5246582 C-20.56221195 10.529551 -19.17236709 8.41889902 -16.75683594 5.17700195 C-11.15493138 0.83266781 -6.90401714 0.0249192 0 0 Z " fill="#000000" transform="translate(46.7568359375,270.822998046875)"/>
</svg>
