<?xml version="1.0" encoding="UTF-8"?>
<svg version="1.1" xmlns="http://www.w3.org/2000/svg" width="512" height="512">
<path d="M0 0 C0.78310547 0.17660156 1.56621094 0.35320313 2.37304688 0.53515625 C51.85259527 11.8856049 95.44315967 44.99060471 122.54296875 87.41552734 C128.99524127 97.85813245 134.535665 108.56667146 139 120 C139.26119629 120.6614502 139.52239258 121.32290039 139.79150391 122.00439453 C146.36150988 138.88188362 151.23174334 157.25769281 152.34765625 175.3671875 C152.41509033 176.34308838 152.48252441 177.31898926 152.55200195 178.32446289 C152.6810971 180.27266944 152.78626945 182.2226534 152.86401367 184.17358398 C153.2535001 190.03564071 154.27552553 193.32157259 158.51171875 197.47827148 C163.93186188 203.02022558 164.96985543 210.62633363 166 218 C167.27875 218.185625 168.5575 218.37125 169.875 218.5625 C179.50756552 220.71316714 188.3867314 228.4340643 193.69140625 236.60546875 C199.57374653 246.88184635 200.32321843 255.73122404 200.3359375 267.39453125 C200.34237925 268.79164257 200.34910859 270.18875258 200.35610962 271.58586121 C200.36803295 274.5049451 200.37179558 277.42391109 200.37060547 280.34301758 C200.37040257 284.05478185 200.39769608 287.76577804 200.43214989 291.47736073 C200.45455889 294.3610114 200.45843877 297.2444813 200.45738602 300.12821007 C200.46084446 302.15257334 200.48241524 304.17688019 200.50448608 306.2011261 C200.4449013 318.35071743 197.29471792 327.33449875 190 337 C189.07767578 338.25296875 189.07767578 338.25296875 188.13671875 339.53125 C182.41274223 346.14469271 174.2673071 349.69599638 166 352 C165.91363281 352.60585938 165.82726562 353.21171875 165.73828125 353.8359375 C164.06633266 363.80627311 160.10254026 373.29006169 151.89453125 379.625 C146.41970743 383.43995261 141.81531039 386 135 386 C135.02094727 387.18851562 135.04189453 388.37703125 135.06347656 389.6015625 C135.13689169 394.08939144 135.18216161 398.57716959 135.21972656 403.06542969 C135.23961428 404.9932554 135.26673439 406.92102267 135.30175781 408.84863281 C135.71227233 432.05477696 131.34042517 450.69978259 115.015625 468.1171875 C97.35896929 485.17643757 75.53696776 486.17622839 52.375 486.0625 C50.589845 486.0574755 48.80468864 486.05291428 47.01953125 486.04882812 C42.6796533 486.03789651 38.33984198 486.0206841 34 486 C33.79528076 487.16692383 33.79528076 487.16692383 33.58642578 488.35742188 C32.28671297 494.21424597 27.29104563 499.27734799 22.625 502.875 C15.88008565 507.12075563 8.87812696 508.46668958 1.01171875 508.46875 C0.18726761 508.47636353 -0.63718353 508.48397705 -1.48661804 508.49182129 C-3.21850584 508.50254854 -4.95045795 508.50550571 -6.68237305 508.50097656 C-9.29653742 508.50000593 -11.9077434 508.54167432 -14.52148438 508.5859375 C-26.7167862 508.67423092 -36.43521862 507.29183433 -45.9375 498.9375 C-53.18669216 490.92384757 -55.71935494 482.33361948 -55.52416992 471.73022461 C-55.22649585 466.05936242 -54.05702136 461.75219208 -51 457 C-50.57589844 456.30519531 -50.15179688 455.61039062 -49.71484375 454.89453125 C-44.35441706 446.93601474 -36.36134671 441.91403 -27 440 C-21.84041409 439.60335583 -16.71733865 439.52612117 -11.54443359 439.55395508 C-9.13682254 439.56245825 -6.73159617 439.53364854 -4.32421875 439.50195312 C6.73243887 439.44963005 16.87745861 440.2264928 25.375 448.1875 C26.14585937 448.88230469 26.91671875 449.57710938 27.7109375 450.29296875 C30.75166005 453.88890856 32.84259885 457.83057057 35 462 C40.01298895 462.07518327 45.02563671 462.12907998 50.0390625 462.16479492 C51.73801402 462.17971208 53.43692821 462.20005315 55.13574219 462.22631836 C71.80891153 462.47730172 86.22996202 461.60820169 99.28125 449.96484375 C108.38273603 440.60865196 111.06797574 429.38421937 111.31640625 416.76171875 C111.3475779 415.44056816 111.3475779 415.44056816 111.37937927 414.09272766 C111.44453937 411.29106121 111.50360321 408.48930443 111.5625 405.6875 C111.60571715 403.78319394 111.64933244 401.87889688 111.69335938 399.97460938 C111.80018623 395.31649782 111.9015474 390.65829578 112 386 C111.32598145 385.87882812 110.65196289 385.75765625 109.95751953 385.6328125 C109.06661621 385.46523438 108.17571289 385.29765625 107.2578125 385.125 C105.93740967 384.88136719 105.93740967 384.88136719 104.59033203 384.6328125 C96.02417296 382.54011841 90.60305122 376.18787179 86 369 C81.62680117 359.59646208 80.27193417 351.0320274 80.36889648 340.74951172 C80.36374055 339.38761469 80.3564468 338.02572437 80.34721375 336.66384888 C80.3289071 333.01083803 80.34150299 329.35856942 80.36130404 325.70559072 C80.37785915 321.85687192 80.3688548 318.00819396 80.36378479 314.15945435 C80.35928353 307.70237561 80.37501328 301.24558842 80.40307617 294.78857422 C80.43514649 287.35275109 80.4350954 279.91745255 80.4178614 272.48159206 C80.40193042 265.28728484 80.40877014 258.0931676 80.42579842 250.89886856 C80.43262129 247.85528547 80.43168613 244.81185687 80.42425346 241.76827621 C80.41652215 238.17775035 80.42893602 234.58781287 80.45610237 230.99738693 C80.46613269 229.07231722 80.45687631 227.14717629 80.44677734 225.22210693 C80.57385625 213.4949418 83.41200844 201.58799156 92 193 C91.82681064 156.93331669 77.82317358 123.94366406 53 98 C52.278125 97.20335938 51.55625 96.40671875 50.8125 95.5859375 C28.44018735 71.77756424 -5.85952475 57.9442008 -38.1796875 56.7734375 C-69.39183423 56.0816176 -98.74482842 64.46664897 -124 83 C-124.87785156 83.63421875 -125.75570312 84.2684375 -126.66015625 84.921875 C-155.14491499 106.59808165 -173.70945375 139.28907182 -178.68359375 174.6328125 C-180.7538064 185.14236938 -180.7538064 185.14236938 -178.828125 194.984375 C-178.30734375 195.56703125 -177.7865625 196.1496875 -177.25 196.75 C-171.65327945 203.63012928 -168.89468282 211.89122255 -168.84609985 220.70175171 C-168.83749939 221.86499969 -168.82889893 223.02824768 -168.82003784 224.22674561 C-168.81577789 225.49947327 -168.81151794 226.77220093 -168.80712891 228.08349609 C-168.79922279 229.44066576 -168.79095352 230.79783336 -168.78234863 232.15499878 C-168.75617037 236.61112473 -168.74081739 241.06725983 -168.7265625 245.5234375 C-168.72119962 247.06224192 -168.71582211 248.6010463 -168.71043015 250.13985062 C-168.68880063 256.54801051 -168.67006989 262.95616794 -168.65880775 269.36435509 C-168.64260929 278.51884081 -168.60953294 287.67289938 -168.55240691 296.82722414 C-168.51353745 303.27842547 -168.49415464 309.72951343 -168.48888719 316.18082869 C-168.48525464 320.02561744 -168.47346114 323.8699502 -168.44078445 327.71461105 C-168.41040536 331.34110337 -168.40449604 334.96687101 -168.41616821 338.5934639 C-168.41648943 340.53503525 -168.39221973 342.4765639 -168.36679077 344.41796875 C-168.4551924 357.07962872 -171.70990628 367.83108693 -180.73046875 376.94140625 C-189.66129842 385.04217602 -197.43389487 386.37334786 -209.20288086 386.37060547 C-211.29689605 386.3749675 -213.38878013 386.41130919 -215.48242188 386.44921875 C-223.12997931 386.51370539 -229.37594393 386.04729382 -236 382 C-237.07725342 381.34777466 -237.07725342 381.34777466 -238.17626953 380.68237305 C-246.88306296 375.12036607 -251.2489573 365.98489079 -253.58984375 356.21484375 C-254 354 -254 354 -254 352 C-254.8353125 351.76216797 -254.8353125 351.76216797 -255.6875 351.51953125 C-261.41974518 349.76693602 -266.11071688 347.45370637 -271 344 C-272.010625 343.29875 -273.02125 342.5975 -274.0625 341.875 C-281.85388206 335.08142436 -287.25438946 323.79662111 -288.37145996 313.61395264 C-288.50918671 309.82943584 -288.52852437 306.06422578 -288.49609375 302.27734375 C-288.49624921 300.88212509 -288.49774596 299.48690601 -288.50050354 298.09169006 C-288.50187805 295.1861735 -288.48948955 292.28115626 -288.46655273 289.37573242 C-288.43814373 285.67859054 -288.44092519 281.98227465 -288.45364285 278.28507137 C-288.46064481 275.41000998 -288.45276015 272.53513472 -288.44038582 269.66009712 C-288.43376798 267.64295126 -288.43798238 265.62577901 -288.44248962 263.60862732 C-288.30236413 249.85402248 -284.80251749 238.90075595 -275.25 228.75 C-270.31633675 224.08097769 -264.54077305 219.81170138 -257.84765625 218.27734375 C-254.68719685 217.23700132 -254.68719685 217.23700132 -253.56640625 213.83984375 C-253.21297568 212.54404301 -252.87921522 211.2427602 -252.5625 209.9375 C-250.5007101 202.65146242 -247.40259141 197.40259141 -242 192 C-241.73585079 190.1194012 -241.53131391 188.23037703 -241.3515625 186.33984375 C-241.23506348 185.16139893 -241.11856445 183.9829541 -240.99853516 182.76879883 C-240.81363525 180.87230591 -240.81363525 180.87230591 -240.625 178.9375 C-235.1698841 126.084005 -212.36924176 77.48368097 -171.8359375 42.26953125 C-145.7378208 21.38384833 -116.78409998 6.26293907 -84 -1 C-83.35949707 -1.14953125 -82.71899414 -1.2990625 -82.05908203 -1.453125 C-56.20310831 -7.24186894 -25.62323399 -6.12685405 0 0 Z M-118 35 C-119.03640625 35.47179687 -120.0728125 35.94359375 -121.140625 36.4296875 C-137.38262776 44.11641073 -151.55007581 55.35628543 -164.54638672 67.62988281 C-165.87780581 68.88482469 -167.22151503 70.12669423 -168.56640625 71.3671875 C-198.80685252 100.19997255 -214.6393893 142.07962261 -218 183 C-213.05 183 -208.1 183 -203 183 C-202.82984375 181.741875 -202.6596875 180.48375 -202.484375 179.1875 C-200.9590206 168.26098178 -199.13190483 157.58731465 -196 147 C-195.70899414 146.01 -195.70899414 146.01 -195.41210938 145 C-189.89393111 126.7812527 -180.69336566 109.96903161 -169 95 C-168.24976563 94.02804688 -167.49953125 93.05609375 -166.7265625 92.0546875 C-141.65983402 60.47940496 -104.01420827 39.9604035 -64.07202148 35.0859375 C-20.78416877 30.24882336 21.80674112 41.79630391 56 69 C83.96399815 92.6628533 101.61995625 122.70485865 111 158 C111.30744141 159.14662109 111.30744141 159.14662109 111.62109375 160.31640625 C113.44037506 167.74866401 114.10779214 175.41623322 115 183 C119.95 183 124.9 183 130 183 C127.0126801 149.74641268 117.06046395 118.08552915 97 91 C96.5884668 90.43055664 96.17693359 89.86111328 95.75292969 89.27441406 C81.93859173 70.25963594 64.62838809 55.66257449 45 43 C44.13503906 42.43152344 43.27007812 41.86304687 42.37890625 41.27734375 C-5.08885671 11.25978707 -68.22585072 11.57210237 -118 35 Z M-226.03515625 208.15625 C-231.16413562 215.57950444 -231.44090493 221.17766848 -231.41992188 230.03857422 C-231.42839142 231.35308563 -231.43686096 232.66759705 -231.44558716 234.02194214 C-231.46775344 237.61710751 -231.4707363 241.21204335 -231.46883965 244.80726767 C-231.46871971 247.8140824 -231.47729333 250.82084892 -231.48561716 253.82765019 C-231.50483392 260.92468382 -231.5077415 268.02159983 -231.50097656 275.11865234 C-231.49433792 282.42718784 -231.51719653 289.73521836 -231.55429029 297.04365146 C-231.58503289 303.3300745 -231.59634238 309.61633549 -231.59245348 315.90283215 C-231.59039054 319.65234481 -231.595794 323.40146449 -231.62034607 327.15090561 C-231.64684159 331.33515353 -231.63285078 335.51834196 -231.61523438 339.70263672 C-231.62849762 340.93614868 -231.64176086 342.16966064 -231.65542603 343.44055176 C-231.58647098 350.49459733 -230.87066616 355.65155226 -226 361 C-221.32211986 364.32444853 -217.03672859 364.46257567 -211.5 364.375 C-210.39978516 364.39240234 -210.39978516 364.39240234 -209.27734375 364.41015625 C-204.48597151 364.38444227 -201.01373612 363.85245854 -197 361 C-191.20428342 354.62830215 -191.2904929 347.98478166 -191.36889648 339.734375 C-191.36174118 338.41957153 -191.35458588 337.10476807 -191.34721375 335.75012207 C-191.32878123 332.16313622 -191.34158569 328.57689866 -191.36130404 324.98994446 C-191.37775995 321.22473365 -191.36886804 317.45956765 -191.36378479 313.69433594 C-191.35927153 307.37292612 -191.37508568 301.05181294 -191.40307617 294.73046875 C-191.43512482 287.43669733 -191.43510995 280.14346072 -191.4178614 272.84965134 C-191.40196166 265.81445402 -191.40875193 258.77945156 -191.42579842 251.7442627 C-191.43264584 248.75877655 -191.43166037 245.77344767 -191.42425346 242.78796387 C-191.41512364 238.61355213 -191.43919941 234.43995706 -191.46655273 230.265625 C-191.46002686 229.03525513 -191.45350098 227.80488525 -191.44677734 226.53723145 C-191.53311248 218.77684007 -192.27267892 212.82153382 -197.92211914 207.02929688 C-202.1377848 204.94102917 -206.82764886 205.48858241 -211.4375 205.5 C-212.47455078 205.47164062 -213.51160156 205.44328125 -214.58007812 205.4140625 C-220.7109202 205.37980277 -220.7109202 205.37980277 -226.03515625 208.15625 Z M108.96484375 208.15625 C103.83586438 215.57950444 103.55909507 221.17766848 103.58007812 230.03857422 C103.57160858 231.35308563 103.56313904 232.66759705 103.55441284 234.02194214 C103.53224656 237.61710751 103.5292637 241.21204335 103.53116035 244.80726767 C103.53128029 247.8140824 103.52270667 250.82084892 103.51438284 253.82765019 C103.49516608 260.92468382 103.4922585 268.02159983 103.49902344 275.11865234 C103.50566208 282.42718784 103.48280347 289.73521836 103.44570971 297.04365146 C103.41496711 303.3300745 103.40365762 309.61633549 103.40754652 315.90283215 C103.40960946 319.65234481 103.404206 323.40146449 103.37965393 327.15090561 C103.35315841 331.33515353 103.36714922 335.51834196 103.38476562 339.70263672 C103.37150238 340.93614868 103.35823914 342.16966064 103.34457397 343.44055176 C103.41352902 350.49459733 104.12933384 355.65155226 109 361 C113.67788014 364.32444853 117.96327141 364.46257567 123.5 364.375 C124.60021484 364.39240234 124.60021484 364.39240234 125.72265625 364.41015625 C130.51402849 364.38444227 133.98626388 363.85245854 138 361 C143.79571658 354.62830215 143.7095071 347.98478166 143.63110352 339.734375 C143.63825882 338.41957153 143.64541412 337.10476807 143.65278625 335.75012207 C143.67121877 332.16313622 143.65841431 328.57689866 143.63869596 324.98994446 C143.62224005 321.22473365 143.63113196 317.45956765 143.63621521 313.69433594 C143.64072847 307.37292612 143.62491432 301.05181294 143.59692383 294.73046875 C143.56487518 287.43669733 143.56489005 280.14346072 143.5821386 272.84965134 C143.59803834 265.81445402 143.59124807 258.77945156 143.57420158 251.7442627 C143.56735416 248.75877655 143.56833963 245.77344767 143.57574654 242.78796387 C143.58487636 238.61355213 143.56080059 234.43995706 143.53344727 230.265625 C143.53997314 229.03525513 143.54649902 227.80488525 143.55322266 226.53723145 C143.46688752 218.77684007 142.72732108 212.82153382 137.07788086 207.02929688 C132.8622152 204.94102917 128.17235114 205.48858241 123.5625 205.5 C122.52544922 205.47164062 121.48839844 205.44328125 120.41992188 205.4140625 C114.2890798 205.37980277 114.2890798 205.37980277 108.96484375 208.15625 Z M-257.25 244 C-265.36739276 252.32976641 -266.15512593 260.36828395 -266.16796875 271.5859375 C-266.17129715 272.60168854 -266.17462555 273.61743958 -266.17805481 274.66397095 C-266.18310466 276.80722604 -266.18546374 278.95048896 -266.18530273 281.09375 C-266.18748788 284.35690377 -266.20566079 287.61971852 -266.22460938 290.8828125 C-266.22754404 292.97135302 -266.22952835 295.05989513 -266.23046875 297.1484375 C-266.23765427 298.11639252 -266.24483978 299.08434753 -266.25224304 300.08163452 C-266.22342107 308.7096395 -264.87268088 315.76058841 -260 323 C-257.38888376 325.73249574 -257.38888376 325.73249574 -254 327 C-254 298.95 -254 270.9 -254 242 C-255.37716489 241.88927269 -255.37716489 241.88927269 -257.25 244 Z M166 242 C166 270.05 166 298.1 166 327 C171.78021832 323.53186901 174.95750885 320.44170285 177 314 C178.19470835 308.47508123 178.16152989 303.03813286 178.16796875 297.4140625 C178.17129715 296.39831146 178.17462555 295.38256042 178.17805481 294.33602905 C178.18310466 292.19277396 178.18546374 290.04951104 178.18530273 287.90625 C178.18748788 284.64309623 178.20566079 281.38028148 178.22460938 278.1171875 C178.22754404 276.02864698 178.22952835 273.94010487 178.23046875 271.8515625 C178.23765427 270.88360748 178.24483978 269.91565247 178.25224304 268.91836548 C178.22824096 261.73321845 177.64450456 254.91301531 173.6875 248.6875 C173.29949219 248.05199219 172.91148437 247.41648438 172.51171875 246.76171875 C170.69890606 244.46154093 170.69890606 244.46154093 166 242 Z M-31 468 C-32.74008654 471.48017308 -32.58464868 475.20306815 -32 479 C-29.14702391 482.83113932 -26.46680501 484.51743724 -22 486 C-17.88284001 486.41098536 -13.76067234 486.3244115 -9.625 486.3125 C-7.95824219 486.33666992 -7.95824219 486.33666992 -6.2578125 486.36132812 C0.69633701 486.3654675 6.55027052 486.21974751 11.875 481.25 C13.4608222 478.07835561 13.87775001 475.54524971 14 472 C12.78881664 468.50102585 11.78565256 466.59305177 8.82397461 464.35742188 C3.76667507 461.92649031 -1.78384785 462.48131361 -7.29223633 462.49902344 C-9.42861716 462.49999596 -11.5614026 462.45833929 -13.69726562 462.4140625 C-23.57599353 462.21512101 -23.57599353 462.21512101 -31 468 Z " fill="#000000" transform="translate(300,4)"/>
</svg>
